<svg width="20" height="20" viewBox="0 0 20 20" fill="none" xmlns="http://www.w3.org/2000/svg">
<path d="M5.01557 2C6.1187 2 7.01557 2.89688 7.01557 4C7.01557 5.10312 6.1187 6 5.01557 6C3.91245 6 3.01557 5.10312 3.01557 4C3.01557 2.89688 3.91245 2 5.01557 2ZM2.76557 17V14.5H2.20932C1.8687 14.5 1.62807 14.1656 1.73432 13.8406L2.70932 10.9219L1.81245 12.1031C1.47807 12.5437 0.849948 12.6281 0.412448 12.2969C-0.0250525 11.9656 -0.115677 11.3344 0.218698 10.8969L2.05932 8.46875C2.75932 7.54375 3.8562 7 5.01557 7C6.17495 7 7.27182 7.54375 7.97182 8.46875L9.81245 10.8969C10.1468 11.3375 10.0593 11.9656 9.6187 12.2969C9.17807 12.6281 8.54995 12.5437 8.2187 12.1031L7.32182 10.9219L8.2937 13.8406C8.40307 14.1656 8.15932 14.5 7.8187 14.5H7.26245V17C7.26245 17.5531 6.81557 18 6.26245 18C5.70932 18 5.26245 17.5531 5.26245 17V14.5H4.76245V17C4.76245 17.5531 4.31557 18 3.76245 18C3.20932 18 2.76245 17.5531 2.76245 17H2.76557ZM15.0156 2C16.1187 2 17.0156 2.89688 17.0156 4C17.0156 5.10312 16.1187 6 15.0156 6C13.9124 6 13.0156 5.10312 13.0156 4C13.0156 2.89688 13.9124 2 15.0156 2ZM14.7656 14V17C14.7656 17.5531 14.3187 18 13.7656 18C13.2124 18 12.7656 17.5531 12.7656 17V11.3906L12.3624 12.0312C12.0687 12.5 11.4499 12.6375 10.9843 12.3438C10.5187 12.05 10.3781 11.4312 10.6718 10.9656L12.2874 8.4C12.8374 7.52812 13.7968 6.99687 14.8249 6.99687H15.2093C16.2406 6.99687 17.1999 7.525 17.7468 8.4L19.3624 10.9688C19.6562 11.4375 19.5156 12.0531 19.0499 12.3469C18.5843 12.6406 17.9656 12.5 17.6718 12.0344L17.2687 11.3938V17.0031C17.2687 17.5562 16.8218 18.0031 16.2687 18.0031C15.7156 18.0031 15.2687 17.5562 15.2687 17.0031V14.0031H14.7687L14.7656 14Z" fill="black"/>
</svg>
