<svg width="24" height="24" viewBox="0 0 24 24" fill="none" xmlns="http://www.w3.org/2000/svg">
<path d="M7.2 16.8001C9.1875 16.8001 10.8 18.4126 10.8 20.4001C10.8 21.0638 10.2637 21.6001 9.6 21.6001H1.2C0.53625 21.6001 0 21.0638 0 20.4001C0 18.4126 1.6125 16.8001 3.6 16.8001H7.2ZM20.4 3.6001C21.7237 3.6001 22.8 4.67635 22.8 6.0001V16.8001C22.8 18.0413 21.855 19.0651 20.6437 19.1888L20.4 19.2001H12.4837C12.2925 18.2926 11.8725 17.4713 11.28 16.8001H13.2V15.6001C13.2 14.9363 13.7362 14.4001 14.4 14.4001H18C18.6637 14.4001 19.2 14.9363 19.2 15.6001V16.8001H20.4V6.0001H7.2V8.14885C6.645 7.92385 6.0375 7.8001 5.4 7.8001C5.1975 7.8001 4.995 7.81135 4.8 7.8376V6.0001C4.8 4.67635 5.87625 3.6001 7.2 3.6001H20.4ZM5.4 15.6001C3.7425 15.6001 2.4 14.2576 2.4 12.6001C2.4 10.9426 3.7425 9.6001 5.4 9.6001C7.0575 9.6001 8.4 10.9426 8.4 12.6001C8.4 14.2576 7.0575 15.6001 5.4 15.6001Z" fill="#374151"/>
</svg>
