<svg width="24" height="24" viewBox="0 0 24 24" fill="none" xmlns="http://www.w3.org/2000/svg">
<path d="M15 15H19V13H15V15ZM15 11H19V9H15V11ZM5 17C4.45 17 3.97933 16.8043 3.588 16.413C3.19667 16.0217 3.00067 15.5507 3 15V9C3 8.45 3.196 7.97933 3.588 7.588C3.98 7.19667 4.45067 7.00067 5 7H10C10.2833 7 10.521 7.096 10.713 7.288C10.905 7.48 11.0007 7.71733 11 8C10.9993 8.28267 10.9033 8.52033 10.712 8.713C10.5207 8.90567 10.2833 9.00133 10 9H5V15H9V13H8C7.71667 13 7.47933 12.904 7.288 12.712C7.09667 12.52 7.00067 12.2827 7 12C6.99933 11.7173 7.09533 11.48 7.288 11.288C7.48067 11.096 7.718 11 8 11H10C10.2833 11 10.521 11.096 10.713 11.288C10.905 11.48 11.0007 11.7173 11 12V15C11 15.55 10.8043 16.021 10.413 16.413C10.0217 16.805 9.55067 17.0007 9 17H5ZM14 17C13.7167 17 13.4793 16.904 13.288 16.712C13.0967 16.52 13.0007 16.2827 13 16V8C13 7.71667 13.096 7.47933 13.288 7.288C13.48 7.09667 13.7173 7.00067 14 7H19C19.55 7 20.021 7.196 20.413 7.588C20.805 7.98 21.0007 8.45067 21 9V10.5C21 10.9167 20.8543 11.271 20.563 11.563C20.2717 11.855 19.9173 12.0007 19.5 12C19.9167 12 20.271 12.146 20.563 12.438C20.855 12.73 21.0007 13.084 21 13.5V15C21 15.55 20.8043 16.021 20.413 16.413C20.0217 16.805 19.5507 17.0007 19 17H14Z" fill="black"/>
</svg>
