<svg width="24" height="24" viewBox="0 0 24 24" fill="none" xmlns="http://www.w3.org/2000/svg">
<path d="M4.288 16.713C4.096 16.521 4 16.2833 4 16V8C4 7.71667 4.096 7.47933 4.288 7.288C4.48 7.09667 4.71733 7.00067 5 7H10C10.2833 7 10.521 7.096 10.713 7.288C10.905 7.48 11.0007 7.71733 11 8C10.9993 8.28267 10.9033 8.52033 10.712 8.713C10.5207 8.90567 10.2833 9.00133 10 9H6V11H9C9.28333 11 9.521 11.096 9.713 11.288C9.905 11.48 10.0007 11.7173 10 12C9.99933 12.2827 9.90333 12.5203 9.712 12.713C9.52067 12.9057 9.28333 13.0013 9 13H6V16C6 16.2833 5.904 16.521 5.712 16.713C5.52 16.905 5.28267 17.0007 5 17C4.71733 16.9993 4.48 16.9043 4.288 16.713ZM13.288 16.712C13.096 16.5213 13 16.284 13 16V8C13 7.71667 13.096 7.47933 13.288 7.288C13.48 7.09667 13.7173 7.00067 14 7H18C18.55 7 19.021 7.196 19.413 7.588C19.805 7.98 20.0007 8.45067 20 9V11C20 11.5333 19.8167 11.9877 19.45 12.363C19.0833 12.7383 18.65 12.9507 18.15 13L19.375 15.65C19.525 15.9667 19.5043 16.271 19.313 16.563C19.1217 16.855 18.8507 17.0007 18.5 17C18.3167 17 18.15 16.95 18 16.85C17.85 16.75 17.7333 16.6167 17.65 16.45L16.025 13H15V16C15 16.2833 14.904 16.521 14.712 16.713C14.52 16.905 14.2827 17.0007 14 17C13.7173 16.9993 13.48 16.9033 13.288 16.712ZM15 11H18V9H15V11Z" fill="black"/>
</svg>
