<svg width="20" height="20" viewBox="0 0 20 20" fill="none" xmlns="http://www.w3.org/2000/svg">
<path d="M6 2C6.55313 2 7 2.44687 7 3V4H11C11.5531 4 12 4.44687 12 5C12 5.55313 11.5531 6 11 6H10.7L10.4375 6.72188C9.925 8.13438 9.15312 9.425 8.18125 10.5344C8.625 10.8094 9.0875 11.0531 9.56875 11.2688L11.1438 11.9688L13.0875 7.59375C13.2469 7.23125 13.6062 7 14 7C14.3938 7 14.7531 7.23125 14.9125 7.59375L18.9125 16.5938C19.1375 17.1 18.9094 17.6906 18.4062 17.9125C17.9031 18.1344 17.3094 17.9094 17.0875 17.4062L16.4625 16H11.5406L10.9156 17.4062C10.6906 17.9125 10.1 18.1375 9.59688 17.9125C9.09375 17.6875 8.86562 17.0969 9.09062 16.5938L10.3344 13.7969L8.75937 13.0969C8.04062 12.7781 7.35312 12.3969 6.70312 11.9594C6.0375 12.4969 5.30937 12.9656 4.53125 13.3562L3.44688 13.8938C2.95313 14.1406 2.35313 13.9406 2.10625 13.4469C1.85938 12.9531 2.05937 12.3531 2.55312 12.1062L3.63125 11.5656C4.14062 11.3094 4.625 11.0125 5.08125 10.6812C4.65 10.2844 4.24375 9.85625 3.86562 9.40312L3.55 9.02188C3.19687 8.59688 3.25312 7.96563 3.67812 7.6125C4.10312 7.25938 4.73438 7.31562 5.0875 7.74062L5.40625 8.12187C5.76562 8.55625 6.15937 8.95938 6.575 9.33125C7.43437 8.38125 8.1125 7.26562 8.55937 6.0375L8.575 6H2.00312C1.44687 6 1 5.55313 1 5C1 4.44687 1.44687 4 2 4H5V3C5 2.44687 5.44687 2 6 2ZM14 10.4625L12.4281 14H15.5719L14 10.4625Z" fill="black"/>
</svg>
