<svg width="24" height="24" viewBox="0 0 24 24" fill="none" xmlns="http://www.w3.org/2000/svg">
<g clip-path="url(#clip0_2092_314)">
<path fill-rule="evenodd" clip-rule="evenodd" d="M7.75192 1.17092C7.72086 0.888958 7.57926 0.630822 7.35817 0.453111C7.13707 0.2754 6.85453 0.192617 6.57249 0.222915C5.9542 0.290344 5.34334 0.358915 4.73992 0.428629L4.52734 0.454344C3.48544 0.576424 2.51529 1.04678 1.77413 1.78918C1.03298 2.53158 0.564248 3.50252 0.443916 4.54463L0.438773 4.59606C0.363344 5.24634 0.290773 5.90806 0.221058 6.5812C0.191733 6.864 0.275949 7.14686 0.455181 7.36756C0.634412 7.58827 0.893976 7.72873 1.17677 7.75806C1.45957 7.78738 1.74243 7.70317 1.96314 7.52394C2.18384 7.34471 2.3243 7.08514 2.35363 6.80234C2.4222 6.14177 2.49363 5.48463 2.56792 4.83092L2.57306 4.78463C2.63892 4.22347 2.89195 3.70087 3.29132 3.30119C3.69069 2.90151 4.21309 2.64807 4.7742 2.58177L4.98677 2.55606L6.8022 2.35034C7.08447 2.31971 7.34304 2.17829 7.52111 1.95715C7.69918 1.736 7.78219 1.45322 7.75192 1.17092ZM16.2496 1.17092C16.2803 0.888647 16.4217 0.630081 16.6428 0.452009C16.864 0.273938 17.1468 0.190924 17.4291 0.221201C18.0462 0.288629 18.6565 0.357201 19.2599 0.426915L19.4742 0.452629C20.5161 0.575147 21.486 1.04591 22.2269 1.78862C22.9677 2.53134 23.436 3.50247 23.5559 4.54463L23.5628 4.59606C23.6371 5.24749 23.7091 5.9092 23.7788 6.5812C23.8013 6.86023 23.7138 7.137 23.5349 7.3523C23.3559 7.56759 23.0999 7.70432 22.8214 7.73321C22.543 7.76211 22.2643 7.68088 22.045 7.50692C21.8257 7.33295 21.6831 7.08005 21.6479 6.80234C21.5793 6.14177 21.5073 5.48463 21.4319 4.83092L21.4268 4.78463C21.361 4.22372 21.1082 3.70132 20.7092 3.30167C20.3102 2.90203 19.7881 2.64843 19.2273 2.58177L19.0148 2.55606L17.1976 2.35034C16.916 2.31887 16.6583 2.17709 16.4809 1.95604C16.3036 1.735 16.2193 1.45269 16.2496 1.17092ZM11.9999 2.68292C11.3536 2.68292 10.7571 2.86634 10.3251 3.30006C9.89134 3.73206 9.70792 4.32863 9.70792 4.97492C9.70792 5.6212 9.89134 6.21606 10.3251 6.64977C10.5022 6.82577 10.7039 6.96292 10.9302 7.0612V8.20806C9.91534 8.21663 8.87992 8.24749 7.92677 8.37263C7.26638 8.45537 6.65115 8.75175 6.17484 9.21661C5.69853 9.68147 5.38727 10.2893 5.28849 10.9475C5.1822 11.6829 5.1822 12.4269 5.1822 13.5789V13.6698C5.1822 14.8235 5.1822 15.5675 5.28849 16.3029C5.38727 16.9611 5.69853 17.5689 6.17484 18.0338C6.65115 18.4986 7.26638 18.795 7.92677 18.8778C9.21249 19.0441 10.6456 19.0441 11.9776 19.0441H12.0256C13.3576 19.0441 14.7925 19.0441 16.0765 18.8778C16.7366 18.7947 17.3514 18.4981 17.8274 18.0333C18.3033 17.5685 18.6144 16.9608 18.7131 16.3029C18.8211 15.5658 18.8211 14.8235 18.8211 13.6698V13.5789C18.8211 12.4269 18.8211 11.6829 18.7131 10.9475C18.6144 10.2896 18.3033 9.68191 17.8274 9.21708C17.3514 8.75226 16.7366 8.45572 16.0765 8.37263C15.0794 8.25921 14.0766 8.20426 13.0731 8.20806V7.05949C13.2971 6.96234 13.4976 6.82577 13.6748 6.64977C14.1085 6.21606 14.2919 5.6212 14.2919 4.97492C14.2919 4.32863 14.1085 3.73206 13.6748 3.30006C13.2411 2.86634 12.6462 2.68292 11.9999 2.68292ZM14.2285 12.2229C13.9443 12.2229 13.6718 12.3358 13.4709 12.5367C13.2699 12.7377 13.1571 13.0102 13.1571 13.2943V13.9578C13.1571 14.2419 13.2699 14.5145 13.4709 14.7154C13.6718 14.9163 13.9443 15.0292 14.2285 15.0292C14.5126 15.0292 14.7852 14.9163 14.9861 14.7154C15.187 14.5145 15.2999 14.2419 15.2999 13.9578V13.2943C15.2999 13.0102 15.187 12.7377 14.9861 12.5367C14.7852 12.3358 14.5126 12.2229 14.2285 12.2229ZM8.70334 13.2943C8.70334 13.0102 8.81623 12.7377 9.01716 12.5367C9.21809 12.3358 9.49061 12.2229 9.77477 12.2229C10.0589 12.2229 10.3315 12.3358 10.5324 12.5367C10.7333 12.7377 10.8462 13.0102 10.8462 13.2943V13.9578C10.8462 14.2419 10.7333 14.5145 10.5324 14.7154C10.3315 14.9163 10.0589 15.0292 9.77477 15.0292C9.49061 15.0292 9.21809 14.9163 9.01716 14.7154C8.81623 14.5145 8.70334 14.2419 8.70334 13.9578V13.2943ZM17.4291 23.7806C17.1465 23.8109 16.8635 23.7276 16.6423 23.5492C16.4211 23.3708 16.2799 23.1118 16.2496 22.8292C16.2194 22.5466 16.3027 22.2636 16.4811 22.0424C16.6595 21.8213 16.9185 21.68 17.2011 21.6498L19.0165 21.4441L19.2291 21.4183C19.7896 21.3518 20.3114 21.0984 20.7104 20.6991C21.1094 20.2998 21.3623 19.7778 21.4285 19.2172L21.4336 19.1692C21.5079 18.5166 21.5799 17.8595 21.6496 17.1978C21.6611 17.0555 21.7009 16.9169 21.7667 16.7902C21.8325 16.6635 21.923 16.5513 22.0328 16.46C22.1426 16.3688 22.2695 16.3004 22.4061 16.2589C22.5427 16.2174 22.6862 16.2036 22.8282 16.2184C22.9702 16.2331 23.1078 16.2761 23.2329 16.3447C23.3581 16.4134 23.4683 16.5064 23.557 16.6182C23.6457 16.7301 23.7112 16.8585 23.7496 16.996C23.7879 17.1335 23.7985 17.2773 23.7805 17.4189C23.7096 18.0898 23.6376 18.7521 23.5645 19.4058L23.5576 19.4555C23.4377 20.4976 22.9694 21.4688 22.2286 22.2115C21.4877 22.9542 20.5178 23.425 19.4759 23.5475L19.2633 23.5715C18.6599 23.6435 18.0485 23.7132 17.4291 23.7806ZM6.5742 23.7806C6.85677 23.8111 7.13987 23.7281 7.36121 23.5498C7.58256 23.3715 7.72402 23.1126 7.75449 22.8301C7.78495 22.5475 7.70191 22.2644 7.52365 22.043C7.34538 21.8217 7.08649 21.6802 6.80392 21.6498L4.98849 21.4441L4.77592 21.4183C4.21444 21.3528 3.69145 21.1 3.29143 20.7006C2.8914 20.3012 2.63771 19.7786 2.57134 19.2172L2.5662 19.1692C2.49192 18.5166 2.42049 17.8595 2.35192 17.1978C2.32259 16.915 2.18213 16.6554 1.96142 16.4762C1.74072 16.2969 1.45786 16.2127 1.17506 16.2421C0.892262 16.2714 0.632697 16.4118 0.453466 16.6326C0.274235 16.8533 0.190019 17.1361 0.219344 17.4189C0.289058 18.0898 0.36163 18.7521 0.437058 19.4058L0.442201 19.4555C0.562172 20.4979 1.03074 21.4692 1.77193 22.212C2.51312 22.9547 3.48347 23.4253 4.52563 23.5475L4.7382 23.5715C5.34049 23.6435 5.95134 23.7126 6.57077 23.7789" fill="black"/>
</g>
<defs>
<clipPath id="clip0_2092_314">
<rect width="24" height="24" fill="white"/>
</clipPath>
</defs>
</svg>
