<svg width="27" height="27" viewBox="0 0 27 27" fill="none" xmlns="http://www.w3.org/2000/svg">
<path d="M18 12.375C19.8675 12.375 21.3638 10.8675 21.3638 9C21.3638 7.1325 19.8675 5.625 18 5.625C16.1325 5.625 14.625 7.1325 14.625 9C14.625 10.8675 16.1325 12.375 18 12.375ZM9 12.375C10.8675 12.375 12.3637 10.8675 12.3637 9C12.3637 7.1325 10.8675 5.625 9 5.625C7.1325 5.625 5.625 7.1325 5.625 9C5.625 10.8675 7.1325 12.375 9 12.375ZM9 14.625C6.37875 14.625 1.125 15.9412 1.125 18.5625V20.25C1.125 20.8687 1.63125 21.375 2.25 21.375H15.75C16.3687 21.375 16.875 20.8687 16.875 20.25V18.5625C16.875 15.9412 11.6213 14.625 9 14.625ZM18 14.625C17.6737 14.625 17.3025 14.6475 16.9087 14.6813C16.9312 14.6925 16.9425 14.715 16.9537 14.7262C18.2362 15.66 19.125 16.9087 19.125 18.5625V20.25C19.125 20.6438 19.0462 21.0262 18.9225 21.375H24.75C25.3687 21.375 25.875 20.8687 25.875 20.25V18.5625C25.875 15.9412 20.6213 14.625 18 14.625Z" fill="#374151"/>
</svg>
