<svg width="27" height="27" viewBox="0 0 27 27" fill="none" xmlns="http://www.w3.org/2000/svg">
<path d="M13.5 12.8081C12.5655 12.8081 11.7694 12.4792 11.1116 11.8215C10.4539 11.1637 10.125 10.3676 10.125 9.43311C10.125 8.49861 10.4539 7.70248 11.1116 7.04473C11.7694 6.38698 12.5655 6.05811 13.5 6.05811C14.4345 6.05811 15.2306 6.38698 15.8884 7.04473C16.5461 7.70248 16.875 8.49861 16.875 9.43311C16.875 10.3676 16.5461 11.1637 15.8884 11.8215C15.2306 12.4792 14.4345 12.8081 13.5 12.8081ZM5.625 19.7741V19.0901C5.625 18.6259 5.76 18.1916 6.03 17.7874C6.30075 17.3824 6.6645 17.0681 7.12125 16.8446C8.18325 16.3354 9.246 15.9536 10.3095 15.6994C11.3722 15.4444 12.4358 15.3169 13.5 15.3169C14.5642 15.3169 15.6281 15.4444 16.6916 15.6994C17.7551 15.9544 18.8171 16.3361 19.8776 16.8446C20.3351 17.0681 20.6989 17.3824 20.9689 17.7874C21.2396 18.1916 21.375 18.6259 21.375 19.0901V19.7741C21.375 20.1041 21.2629 20.3816 21.0386 20.6066C20.8144 20.8301 20.5369 20.9419 20.2061 20.9419H6.795C6.46425 20.9419 6.18675 20.8297 5.9625 20.6055C5.73825 20.3812 5.62575 20.1041 5.625 19.7741Z" fill="#374151"/>
</svg>
