<svg width="26" height="26" viewBox="0 0 26 26" fill="none" xmlns="http://www.w3.org/2000/svg">
<path fill-rule="evenodd" clip-rule="evenodd" d="M8.15431 2.87841C9.50839 2.52953 10.9326 2.56178 12.2695 2.9716C13.6064 3.38141 14.8039 4.15283 15.7299 5.20063C16.6558 6.24843 17.2741 7.53181 17.5164 8.90896C17.7586 10.2861 17.6154 11.7034 17.1026 13.0043L22.0849 17.2217C22.4628 17.5411 22.7702 17.9353 22.9879 18.3796C23.2055 18.8239 23.3285 19.3085 23.3492 19.8028C23.3699 20.2971 23.2878 20.7903 23.108 21.2512C22.9283 21.7121 22.6548 22.1307 22.305 22.4805C21.9551 22.8302 21.5365 23.1036 21.0755 23.2833C20.6146 23.4629 20.1214 23.5449 19.6271 23.5241C19.1328 23.5033 18.6482 23.3802 18.204 23.1625C17.7598 22.9447 17.3656 22.6372 17.0463 22.2592L12.8311 17.2792C11.53 17.7928 10.1123 17.9366 8.73459 17.6947C7.35691 17.4529 6.07294 16.8347 5.02466 15.9086C3.97637 14.9826 3.2046 13.7846 2.79468 12.4473C2.38475 11.1099 2.35264 9.68528 2.7019 8.33083C2.75114 8.14051 2.85075 7.96698 2.99025 7.82847C3.12974 7.68996 3.30398 7.5916 3.49464 7.54371C3.6853 7.49582 3.88534 7.50019 4.07373 7.55634C4.26212 7.6125 4.4319 7.71837 4.56523 7.86283L7.86398 11.4454L10.3524 10.53L11.27 8.03833L7.68523 4.74499C7.53991 4.61171 7.4333 4.44163 7.37669 4.25274C7.32008 4.06386 7.31557 3.86318 7.36363 3.67194C7.41169 3.4807 7.51053 3.306 7.64972 3.16631C7.7889 3.02663 7.96324 2.92715 8.15431 2.87841Z" fill="#374151"/>
</svg>
