<svg width="24" height="24" viewBox="0 0 24 24" fill="none" xmlns="http://www.w3.org/2000/svg">
<path d="M11 14.825V18C11 18.2833 11.096 18.521 11.288 18.713C11.48 18.905 11.7173 19.0007 12 19C12.2827 18.9993 12.5203 18.9033 12.713 18.712C12.9057 18.5207 13.0013 18.2833 13 18V14.825L13.9 15.725C14 15.825 14.1127 15.9 14.238 15.95C14.3633 16 14.4883 16.021 14.613 16.013C14.7377 16.005 14.8583 15.9757 14.975 15.925C15.0917 15.8743 15.2 15.7993 15.3 15.7C15.4833 15.5 15.5793 15.2667 15.588 15C15.5967 14.7333 15.5007 14.5 15.3 14.3L12.7 11.7C12.6 11.6 12.4917 11.5293 12.375 11.488C12.2583 11.4467 12.1333 11.4257 12 11.425C11.8667 11.4243 11.7417 11.4453 11.625 11.488C11.5083 11.5307 11.4 11.6013 11.3 11.7L8.7 14.3C8.5 14.5 8.40433 14.7333 8.413 15C8.42167 15.2667 8.52567 15.5 8.725 15.7C8.925 15.8833 9.15833 15.9793 9.425 15.988C9.69167 15.9967 9.925 15.9007 10.125 15.7L11 14.825ZM6 22C5.45 22 4.97933 21.8043 4.588 21.413C4.19667 21.0217 4.00067 20.5507 4 20V4C4 3.45 4.196 2.97933 4.588 2.588C4.98 2.19667 5.45067 2.00067 6 2H13.175C13.4417 2 13.696 2.05 13.938 2.15C14.18 2.25 14.3923 2.39167 14.575 2.575L19.425 7.425C19.6083 7.60833 19.75 7.821 19.85 8.063C19.95 8.305 20 8.559 20 8.825V20C20 20.55 19.8043 21.021 19.413 21.413C19.0217 21.805 18.5507 22.0007 18 22H6ZM13 8C13 8.28333 13.096 8.521 13.288 8.713C13.48 8.905 13.7173 9.00067 14 9H18L13 4V8Z" fill="black"/>
</svg>
