<svg width="16" height="16" viewBox="0 0 16 16" fill="none" xmlns="http://www.w3.org/2000/svg">
<path d="M12.0001 2.66663H4.00008C3.26675 2.66663 2.66675 3.26663 2.66675 3.99996V12.6C2.66675 13 3.00008 13.3333 3.40008 13.3333C3.60008 13.3333 3.73341 13.2666 3.93341 13.1333L5.66675 11.3333H12.0001C12.7334 11.3333 13.3334 10.7333 13.3334 9.99996V3.99996C13.3334 3.26663 12.7334 2.66663 12.0001 2.66663ZM12.3334 9.99996C12.3334 10.2 12.2001 10.3333 12.0001 10.3333H5.26675L3.66675 11.9333V3.99996C3.66675 3.79996 3.80008 3.66663 4.00008 3.66663H12.0001C12.2001 3.66663 12.3334 3.79996 12.3334 3.99996V9.99996Z" fill="#8A8A8A"/>
</svg>
