<svg width="22" height="22" viewBox="0 0 22 22" fill="none" xmlns="http://www.w3.org/2000/svg">
<path d="M17.875 9.62497C17.8749 7.97842 17.3821 6.36956 16.46 5.00541C15.5379 3.64127 14.2287 2.58424 12.7009 1.97034C11.1731 1.35645 9.49651 1.21377 7.88691 1.56066C6.27731 1.90755 4.80834 2.72815 3.669 3.91686C2.52965 5.10558 1.77208 6.60802 1.49374 8.23088C1.2154 9.85373 1.42903 11.5228 2.10715 13.0232C2.78527 14.5236 3.89685 15.7868 5.29886 16.6502C6.70087 17.5137 8.32918 17.9378 9.97425 17.8681C9.81867 17.4254 9.71395 16.9664 9.66213 16.5H9.625C8.26526 16.5 6.93605 16.0968 5.80546 15.3413C4.67487 14.5859 3.79369 13.5122 3.27333 12.2559C2.75298 10.9997 2.61683 9.61734 2.88211 8.28372C3.14738 6.9501 3.80216 5.7251 4.76365 4.76361C5.72513 3.80213 6.95014 3.14735 8.28376 2.88207C9.61738 2.6168 10.9997 2.75295 12.256 3.2733C13.5122 3.79365 14.5859 4.67484 15.3414 5.80543C16.0968 6.93601 16.5 8.26522 16.5 9.62497V9.66209C16.9748 9.71709 17.4309 9.82114 17.8681 9.97422C17.8727 9.85872 17.875 9.7423 17.875 9.62497ZM9.779 14.4347C9.89542 13.9269 10.0696 13.4475 10.3015 12.9965C10.0815 13.0396 9.856 13.0616 9.625 13.0625C8.6075 13.0625 7.69313 12.6211 7.06201 11.9171C6.93856 11.7891 6.7703 11.7138 6.59257 11.7073C6.41484 11.7007 6.24147 11.7632 6.10888 11.8817C5.97628 12.0003 5.89478 12.1656 5.8815 12.3429C5.86821 12.5203 5.92417 12.6959 6.03763 12.8328C6.50622 13.3568 7.08389 13.7717 7.73002 14.0485C8.37616 14.3252 9.07645 14.457 9.779 14.4347ZM8.25 8.24997C8.25 8.52347 8.14136 8.78578 7.94796 8.97917C7.75456 9.17257 7.49226 9.28122 7.21875 9.28122C6.94525 9.28122 6.68295 9.17257 6.48955 8.97917C6.29615 8.78578 6.1875 8.52347 6.1875 8.24997C6.1875 7.97647 6.29615 7.71416 6.48955 7.52077C6.68295 7.32737 6.94525 7.21872 7.21875 7.21872C7.49226 7.21872 7.75456 7.32737 7.94796 7.52077C8.14136 7.71416 8.25 7.97647 8.25 8.24997ZM12.0313 9.28122C12.3048 9.28122 12.5671 9.17257 12.7605 8.97917C12.9539 8.78578 13.0625 8.52347 13.0625 8.24997C13.0625 7.97647 12.9539 7.71416 12.7605 7.52077C12.5671 7.32737 12.3048 7.21872 12.0313 7.21872C11.7577 7.21872 11.4954 7.32737 11.3021 7.52077C11.1087 7.71416 11 7.97647 11 8.24997C11 8.52347 11.1087 8.78578 11.3021 8.97917C11.4954 9.17257 11.7577 9.28122 12.0313 9.28122ZM20.625 15.8125C20.625 17.0888 20.118 18.3129 19.2155 19.2154C18.3129 20.1179 17.0889 20.625 15.8125 20.625C14.5361 20.625 13.3121 20.1179 12.4096 19.2154C11.507 18.3129 11 17.0888 11 15.8125C11 14.5361 11.507 13.312 12.4096 12.4095C13.3121 11.507 14.5361 11 15.8125 11C17.0889 11 18.3129 11.507 19.2155 12.4095C20.118 13.312 20.625 14.5361 20.625 15.8125ZM16.5 13.0625C16.5 12.8801 16.4276 12.7053 16.2986 12.5763C16.1697 12.4474 15.9948 12.375 15.8125 12.375C15.6302 12.375 15.4553 12.4474 15.3264 12.5763C15.1974 12.7053 15.125 12.8801 15.125 13.0625V15.125H13.0625C12.8802 15.125 12.7053 15.1974 12.5764 15.3263C12.4474 15.4553 12.375 15.6301 12.375 15.8125C12.375 15.9948 12.4474 16.1697 12.5764 16.2986C12.7053 16.4275 12.8802 16.5 13.0625 16.5H15.125V18.5625C15.125 18.7448 15.1974 18.9197 15.3264 19.0486C15.4553 19.1775 15.6302 19.25 15.8125 19.25C15.9948 19.25 16.1697 19.1775 16.2986 19.0486C16.4276 18.9197 16.5 18.7448 16.5 18.5625V16.5H18.5625C18.7448 16.5 18.9197 16.4275 19.0486 16.2986C19.1776 16.1697 19.25 15.9948 19.25 15.8125C19.25 15.6301 19.1776 15.4553 19.0486 15.3263C18.9197 15.1974 18.7448 15.125 18.5625 15.125H16.5V13.0625Z" fill="#8E8E8E"/>
</svg>
