<svg width="120" height="120" viewBox="0 0 120 120" fill="none" xmlns="http://www.w3.org/2000/svg">
<g clip-path="url(#clip0_2027_426)">
<path d="M69.2178 21.3047L34.6593 29.054C29.2679 30.263 24.5775 33.5642 21.62 38.2314C18.6626 42.8986 17.6803 48.5495 18.8892 53.9409L25.2711 82.4009C25.8697 85.0704 26.9883 87.596 28.5629 89.8333C30.1376 92.0705 32.1375 93.9758 34.4484 95.4402C39.1156 98.3976 44.7665 99.3799 50.158 98.1709L84.7165 90.4216C87.3861 89.823 89.9116 88.7044 92.1489 87.1297C94.3862 85.5551 96.2914 83.5552 97.7558 81.2442C99.2202 78.9333 100.215 76.3565 100.684 73.661C101.152 70.9656 101.085 68.2042 100.487 65.5347L94.1047 37.0747C93.5061 34.4052 92.3876 31.8796 90.8129 29.6423C89.2382 27.405 87.2383 25.4998 84.9274 24.0354C82.6164 22.571 80.0396 21.5762 77.3442 21.1076C74.6487 20.6391 71.8874 20.706 69.2178 21.3047Z" stroke="#374151" stroke-width="3" stroke-linecap="round" stroke-linejoin="round"/>
<path d="M27.655 88.2715L35.9183 72.7541C37.0555 70.973 38.7731 69.6395 40.7805 68.9793C42.7879 68.319 44.9617 68.3726 46.9341 69.131C48.9065 69.8893 51.0804 69.9429 53.0878 69.2827C55.0951 68.6225 56.8128 67.289 57.95 65.5079L65.2988 53.9106C67.4083 50.569 70.6365 48.0857 74.4074 46.9038C78.1782 45.7219 82.2464 45.9183 85.8858 47.458L97.769 53.0347M41.7567 55.9443C42.643 55.7456 43.4815 55.3742 44.2242 54.8514C44.967 54.3286 45.5996 53.6647 46.0857 52.8974C46.5719 52.1302 46.9022 51.2747 47.0578 50.3798C47.2133 49.4849 47.1911 48.5681 46.9923 47.6818C46.7936 46.7955 46.4222 45.9571 45.8995 45.2143C45.3767 44.4715 44.7127 43.839 43.9455 43.3528C43.1782 42.8666 42.3227 42.5363 41.4278 42.3808C40.5329 42.2252 39.6162 42.2474 38.7299 42.4462C36.9399 42.8476 35.3827 43.9436 34.4008 45.4931C33.419 47.0426 33.0928 48.9187 33.4942 50.7086C33.8956 52.4986 34.9916 54.0558 36.5411 55.0377C38.0906 56.0196 39.9667 56.3457 41.7567 55.9443Z" stroke="#374151" stroke-width="3" stroke-linecap="round" stroke-linejoin="round"/>
</g>
<defs>
<clipPath id="clip0_2027_426">
<rect width="100" height="100" fill="white" transform="translate(0 21.8805) rotate(-12.6388)"/>
</clipPath>
</defs>
</svg>
