<svg width="24" height="24" viewBox="0 0 24 24" fill="none" xmlns="http://www.w3.org/2000/svg">
<path d="M15 12.002V13C15 13.5304 15.2107 14.0391 15.5858 14.4142C15.9609 14.7893 16.4696 15 17 15C17.5304 15 18.0391 14.7893 18.4142 14.4142C18.7893 14.0391 19 13.5304 19 13V12C18.9999 10.5022 18.5194 9.04388 17.6291 7.8394C16.7387 6.63493 15.4855 5.7478 14.0536 5.30838C12.6217 4.86896 11.0866 4.90043 9.6739 5.39815C8.26119 5.89588 7.04539 6.83362 6.20516 8.07356C5.36493 9.31351 4.94457 10.7903 5.00587 12.2868C5.06716 13.7834 5.60688 15.2208 6.5457 16.3879C7.48452 17.555 8.77294 18.3902 10.2216 18.7707C11.6703 19.1512 13.2028 19.057 14.594 18.502M15 12.002C14.9995 12.7975 14.683 13.5602 14.1203 14.1224C13.5575 14.6846 12.7945 15.0003 11.999 15C11.2035 14.9997 10.4407 14.6835 9.87833 14.121C9.31594 13.5584 9 12.7955 9 12C9 11.2045 9.31594 10.4416 9.87833 9.87903C10.4407 9.31645 11.2035 9.00026 11.999 8.99999C12.7945 8.99973 13.5575 9.31541 14.1203 9.87761C14.683 10.4398 14.9995 11.2025 15 11.998M15 12.002V11.998M15 11.998V8.99999" stroke="#8E8E8E" stroke-width="2" stroke-linecap="round" stroke-linejoin="round"/>
</svg>
