<svg width="22" height="24" viewBox="0 0 22 24" fill="none" xmlns="http://www.w3.org/2000/svg">
<path d="M19.4096 6.81201C19.8943 6.28344 20.1666 5.56648 20.1667 4.81887C20.1667 4.07125 19.8946 3.35422 19.4101 2.82551C18.9255 2.29681 18.2683 1.99973 17.583 1.99963C16.8977 1.99954 16.2404 2.29644 15.7558 2.82501L3.52194 16.174C3.3091 16.4055 3.15171 16.6905 3.0636 17.004L1.85269 21.356C1.829 21.4425 1.82721 21.5344 1.84751 21.6219C1.86781 21.7094 1.90945 21.7892 1.968 21.853C2.02655 21.9168 2.09984 21.9621 2.18008 21.9841C2.26032 22.0061 2.34453 22.004 2.42377 21.978L6.41402 20.658C6.70109 20.5628 6.96235 20.3921 7.17485 20.161L19.4096 6.81201Z" stroke="white" stroke-width="2" stroke-linecap="round" stroke-linejoin="round"/>
</svg>
