<svg width="16" height="16" viewBox="0 0 16 16" fill="none" xmlns="http://www.w3.org/2000/svg">
<path d="M12.6665 7.33344H5.21979L8.47312 4.08011C8.73312 3.82011 8.73312 3.39344 8.47312 3.13344C8.41144 3.07164 8.33819 3.0226 8.25754 2.98915C8.17689 2.9557 8.09043 2.93848 8.00312 2.93848C7.91581 2.93848 7.82935 2.9557 7.7487 2.98915C7.66806 3.0226 7.5948 3.07164 7.53312 3.13344L3.13979 7.52677C3.07798 7.58845 3.02895 7.66171 2.9955 7.74236C2.96204 7.82301 2.94482 7.90946 2.94482 7.99677C2.94482 8.08408 2.96204 8.17054 2.9955 8.25119C3.02895 8.33184 3.07798 8.4051 3.13979 8.46677L7.53312 12.8601C7.59484 12.9218 7.66812 12.9708 7.74876 13.0042C7.8294 13.0376 7.91583 13.0548 8.00312 13.0548C8.09041 13.0548 8.17684 13.0376 8.25748 13.0042C8.33813 12.9708 8.4114 12.9218 8.47312 12.8601C8.53484 12.7984 8.5838 12.7251 8.6172 12.6445C8.65061 12.5638 8.6678 12.4774 8.6678 12.3901C8.6678 12.3028 8.65061 12.2164 8.6172 12.1357C8.5838 12.0551 8.53484 11.9818 8.47312 11.9201L5.21979 8.66677H12.6665C13.0331 8.66677 13.3331 8.36677 13.3331 8.00011C13.3331 7.63344 13.0331 7.33344 12.6665 7.33344Z" fill="black"/>
</svg>
