<svg width="24" height="24" viewBox="0 0 24 24" fill="none" xmlns="http://www.w3.org/2000/svg">
<path d="M9 13.5C9 13.8978 8.84196 14.2794 8.56066 14.5607C8.27936 14.842 7.89782 15 7.5 15C7.10218 15 6.72064 14.842 6.43934 14.5607C6.15804 14.2794 6 13.8978 6 13.5C6 13.1022 6.15804 12.7206 6.43934 12.4393C6.72064 12.158 7.10218 12 7.5 12C7.89782 12 8.27936 12.158 8.56066 12.4393C8.84196 12.7206 9 13.1022 9 13.5ZM9 18C9 18.3978 8.84196 18.7794 8.56066 19.0607C8.27936 19.342 7.89782 19.5 7.5 19.5C7.10218 19.5 6.72064 19.342 6.43934 19.0607C6.15804 18.7794 6 18.3978 6 18C6 17.6022 6.15804 17.2206 6.43934 16.9393C6.72064 16.658 7.10218 16.5 7.5 16.5C7.89782 16.5 8.27936 16.658 8.56066 16.9393C8.84196 17.2206 9 17.6022 9 18ZM16.5 15C16.8978 15 17.2794 14.842 17.5607 14.5607C17.842 14.2794 18 13.8978 18 13.5C18 13.1022 17.842 12.7206 17.5607 12.4393C17.2794 12.158 16.8978 12 16.5 12C16.1022 12 15.7206 12.158 15.4393 12.4393C15.158 12.7206 15 13.1022 15 13.5C15 13.8978 15.158 14.2794 15.4393 14.5607C15.7206 14.842 16.1022 15 16.5 15ZM18 18C18 18.3978 17.842 18.7794 17.5607 19.0607C17.2794 19.342 16.8978 19.5 16.5 19.5C16.1022 19.5 15.7206 19.342 15.4393 19.0607C15.158 18.7794 15 18.3978 15 18C15 17.6022 15.158 17.2206 15.4393 16.9393C15.7206 16.658 16.1022 16.5 16.5 16.5C16.8978 16.5 17.2794 16.658 17.5607 16.9393C17.842 17.2206 18 17.6022 18 18ZM12 15C12.3978 15 12.7794 14.842 13.0607 14.5607C13.342 14.2794 13.5 13.8978 13.5 13.5C13.5 13.1022 13.342 12.7206 13.0607 12.4393C12.7794 12.158 12.3978 12 12 12C11.6022 12 11.2206 12.158 10.9393 12.4393C10.658 12.7206 10.5 13.1022 10.5 13.5C10.5 13.8978 10.658 14.2794 10.9393 14.5607C11.2206 14.842 11.6022 15 12 15ZM13.5 18C13.5 18.3978 13.342 18.7794 13.0607 19.0607C12.7794 19.342 12.3978 19.5 12 19.5C11.6022 19.5 11.2206 19.342 10.9393 19.0607C10.658 18.7794 10.5 18.3978 10.5 18C10.5 17.6022 10.658 17.2206 10.9393 16.9393C11.2206 16.658 11.6022 16.5 12 16.5C12.3978 16.5 12.7794 16.658 13.0607 16.9393C13.342 17.2206 13.5 17.6022 13.5 18ZM8.25 4.5C7.65326 4.5 7.08097 4.73705 6.65901 5.15901C6.23705 5.58097 6 6.15326 6 6.75V8.25C6 8.84674 6.23705 9.41903 6.65901 9.84099C7.08097 10.2629 7.65326 10.5 8.25 10.5H15.75C16.3467 10.5 16.919 10.2629 17.341 9.84099C17.7629 9.41903 18 8.84674 18 8.25V6.75C18 6.15326 17.7629 5.58097 17.341 5.15901C16.919 4.73705 16.3467 4.5 15.75 4.5H8.25ZM7.5 6.75C7.5 6.55109 7.57902 6.36032 7.71967 6.21967C7.86032 6.07902 8.05109 6 8.25 6H15.75C15.9489 6 16.1397 6.07902 16.2803 6.21967C16.421 6.36032 16.5 6.55109 16.5 6.75V8.25C16.5 8.44891 16.421 8.63968 16.2803 8.78033C16.1397 8.92098 15.9489 9 15.75 9H8.25C8.05109 9 7.86032 8.92098 7.71967 8.78033C7.57902 8.63968 7.5 8.44891 7.5 8.25V6.75ZM21 18.75C21 19.7446 20.6049 20.6984 19.9017 21.4017C19.1984 22.1049 18.2446 22.5 17.25 22.5H6.75C5.75544 22.5 4.80161 22.1049 4.09835 21.4017C3.39509 20.6984 3 19.7446 3 18.75V5.25C3 4.25544 3.39509 3.30161 4.09835 2.59835C4.80161 1.89509 5.75544 1.5 6.75 1.5H17.25C18.2446 1.5 19.1984 1.89509 19.9017 2.59835C20.6049 3.30161 21 4.25544 21 5.25V18.75ZM19.5 5.25C19.5 4.65326 19.2629 4.08097 18.841 3.65901C18.419 3.23705 17.8467 3 17.25 3H6.75C6.15326 3 5.58097 3.23705 5.15901 3.65901C4.73705 4.08097 4.5 4.65326 4.5 5.25V18.75C4.5 19.3467 4.73705 19.919 5.15901 20.341C5.58097 20.7629 6.15326 21 6.75 21H17.25C17.8467 21 18.419 20.7629 18.841 20.341C19.2629 19.919 19.5 19.3467 19.5 18.75V5.25Z" fill="black"/>
</svg>
