<svg width="20" height="20" viewBox="0 0 20 20" fill="none" xmlns="http://www.w3.org/2000/svg">
<path d="M7.78165 13.325C8.87724 13.263 9.92199 12.8423 10.7548 12.1277C11.5876 11.4132 12.1623 10.4445 12.3901 9.37109C12.6179 8.29766 12.4863 7.17909 12.0155 6.18787C11.5447 5.19666 10.7609 4.38784 9.78495 3.88615C8.80901 3.38447 7.69513 3.21777 6.61507 3.41177C5.53501 3.60577 4.54877 4.1497 3.80843 4.95966C3.06809 5.76963 2.61476 6.80066 2.51836 7.89376C2.42196 8.98685 2.68783 10.0813 3.27498 11.0084L2.92165 12.0684V12.07C2.78582 12.4759 2.71832 12.6784 2.76582 12.8142C2.80748 12.9317 2.90165 13.025 3.01915 13.0667C3.15415 13.115 3.35582 13.0475 3.75915 12.9134L3.76498 12.9117L4.82498 12.5584C5.70577 13.1176 6.74009 13.3858 7.78165 13.325ZM7.78165 13.325C8.03133 14.0344 8.43776 14.6784 8.97068 15.2091C9.50361 15.7397 10.1493 16.1434 10.8598 16.39C11.5703 16.6367 12.3272 16.7199 13.0743 16.6337C13.8214 16.5474 14.5394 16.2938 15.175 15.8917L16.235 16.245H16.2375C16.6433 16.3809 16.8458 16.4484 16.9817 16.4C17.0397 16.3792 17.0923 16.3457 17.1359 16.302C17.1794 16.2584 17.2127 16.2056 17.2333 16.1475C17.2817 16.0125 17.2142 15.8092 17.0783 15.4017L16.725 14.3417L16.8433 14.1459C17.2775 13.3853 17.5044 12.5241 17.5012 11.6484C17.498 10.7726 17.2648 9.91307 16.825 9.15575C16.3852 8.39844 15.7542 7.76992 14.9952 7.33309C14.2362 6.89627 13.3757 6.66647 12.5 6.66669L12.3125 6.67002L12.2183 6.67502" stroke="#3B82F6" stroke-width="2" stroke-linecap="round" stroke-linejoin="round"/>
</svg>
