<svg width="16" height="16" viewBox="0 0 16 16" fill="none" xmlns="http://www.w3.org/2000/svg">
<path d="M12.0001 2.66675H4.00008C3.26675 2.66675 2.66675 3.26675 2.66675 4.00008V12.6001C2.66675 13.0001 3.00008 13.3334 3.40008 13.3334C3.60008 13.3334 3.73341 13.2667 3.93341 13.1334L5.66675 11.3334H12.0001C12.7334 11.3334 13.3334 10.7334 13.3334 10.0001V4.00008C13.3334 3.26675 12.7334 2.66675 12.0001 2.66675ZM12.3334 10.0001C12.3334 10.2001 12.2001 10.3334 12.0001 10.3334H5.26675L3.66675 11.9334V4.00008C3.66675 3.80008 3.80008 3.66675 4.00008 3.66675H12.0001C12.2001 3.66675 12.3334 3.80008 12.3334 4.00008V10.0001Z" fill="#8A8A8A"/>
</svg>
