<svg width="20" height="20" viewBox="0 0 20 20" fill="none" xmlns="http://www.w3.org/2000/svg">
<path d="M5.83341 3.33329C5.83341 2.89127 6.00901 2.46734 6.32157 2.15478C6.63413 1.84222 7.05805 1.66663 7.50008 1.66663H12.5001C12.9421 1.66663 13.366 1.84222 13.6786 2.15478C13.9912 2.46734 14.1667 2.89127 14.1667 3.33329V4.99996H17.5001C17.7211 4.99996 17.9331 5.08776 18.0893 5.24404C18.2456 5.40032 18.3334 5.61228 18.3334 5.83329C18.3334 6.05431 18.2456 6.26627 18.0893 6.42255C17.9331 6.57883 17.7211 6.66663 17.5001 6.66663H16.6092L15.8867 16.785C15.8568 17.2054 15.6687 17.599 15.3602 17.8863C15.0517 18.1736 14.6458 18.3333 14.2242 18.3333H5.77508C5.35353 18.3333 4.94764 18.1736 4.63915 17.8863C4.33067 17.599 4.14251 17.2054 4.11258 16.785L3.39175 6.66663H2.50008C2.27907 6.66663 2.06711 6.57883 1.91083 6.42255C1.75455 6.26627 1.66675 6.05431 1.66675 5.83329C1.66675 5.61228 1.75455 5.40032 1.91083 5.24404C2.06711 5.08776 2.27907 4.99996 2.50008 4.99996H5.83341V3.33329ZM7.50008 4.99996H12.5001V3.33329H7.50008V4.99996ZM5.06175 6.66663L5.77591 16.6666H14.2251L14.9392 6.66663H5.06175ZM8.33341 8.33329C8.55443 8.33329 8.76639 8.42109 8.92267 8.57737C9.07895 8.73365 9.16675 8.94561 9.16675 9.16663V14.1666C9.16675 14.3876 9.07895 14.5996 8.92267 14.7559C8.76639 14.9122 8.55443 15 8.33341 15C8.1124 15 7.90044 14.9122 7.74416 14.7559C7.58788 14.5996 7.50008 14.3876 7.50008 14.1666V9.16663C7.50008 8.94561 7.58788 8.73365 7.74416 8.57737C7.90044 8.42109 8.1124 8.33329 8.33341 8.33329ZM11.6667 8.33329C11.8878 8.33329 12.0997 8.42109 12.256 8.57737C12.4123 8.73365 12.5001 8.94561 12.5001 9.16663V14.1666C12.5001 14.3876 12.4123 14.5996 12.256 14.7559C12.0997 14.9122 11.8878 15 11.6667 15C11.4457 15 11.2338 14.9122 11.0775 14.7559C10.9212 14.5996 10.8334 14.3876 10.8334 14.1666V9.16663C10.8334 8.94561 10.9212 8.73365 11.0775 8.57737C11.2338 8.42109 11.4457 8.33329 11.6667 8.33329Z" fill="#D9534F"/>
</svg>
