<svg width="26" height="26" viewBox="0 0 26 26" fill="none" xmlns="http://www.w3.org/2000/svg">
<path fill-rule="evenodd" clip-rule="evenodd" d="M15.4376 2.70833C15.4376 2.6365 15.409 2.56762 15.3583 2.51683C15.3075 2.46603 15.2386 2.4375 15.1667 2.4375H7.58341C6.79329 2.4375 6.03553 2.75138 5.47683 3.31008C4.91812 3.86878 4.60425 4.62654 4.60425 5.41667V20.5833C4.60425 21.3735 4.91812 22.1312 5.47683 22.6899C6.03553 23.2486 6.79329 23.5625 7.58341 23.5625H18.4167C19.2069 23.5625 19.9646 23.2486 20.5233 22.6899C21.082 22.1312 21.3959 21.3735 21.3959 20.5833V9.90925C21.3959 9.83742 21.3674 9.76853 21.3166 9.71774C21.2658 9.66695 21.1969 9.63842 21.1251 9.63842H16.2501C16.0346 9.63842 15.8279 9.55281 15.6756 9.40044C15.5232 9.24807 15.4376 9.04141 15.4376 8.82592V2.70833ZM16.2501 13.2708C16.4656 13.2708 16.6722 13.3564 16.8246 13.5088C16.977 13.6612 17.0626 13.8678 17.0626 14.0833C17.0626 14.2988 16.977 14.5055 16.8246 14.6579C16.6722 14.8102 16.4656 14.8958 16.2501 14.8958H9.75008C9.53459 14.8958 9.32793 14.8102 9.17556 14.6579C9.02318 14.5055 8.93758 14.2988 8.93758 14.0833C8.93758 13.8678 9.02318 13.6612 9.17556 13.5088C9.32793 13.3564 9.53459 13.2708 9.75008 13.2708H16.2501ZM16.2501 17.6042C16.4656 17.6042 16.6722 17.6898 16.8246 17.8421C16.977 17.9945 17.0626 18.2012 17.0626 18.4167C17.0626 18.6322 16.977 18.8388 16.8246 18.9912C16.6722 19.1436 16.4656 19.2292 16.2501 19.2292H9.75008C9.53459 19.2292 9.32793 19.1436 9.17556 18.9912C9.02318 18.8388 8.93758 18.6322 8.93758 18.4167C8.93758 18.2012 9.02318 17.9945 9.17556 17.8421C9.32793 17.6898 9.53459 17.6042 9.75008 17.6042H16.2501Z" fill="white"/>
<path d="M17.0625 3.05933C17.0625 2.85999 17.2716 2.73324 17.4265 2.85783C17.5579 2.96399 17.6746 3.08749 17.7764 3.22833L21.0405 7.77508C21.1142 7.87908 21.034 8.01341 20.9062 8.01341H17.3333C17.2615 8.01341 17.1926 7.98488 17.1418 7.93409C17.091 7.88329 17.0625 7.81441 17.0625 7.74258V3.05933Z" fill="white"/>
</svg>
