<svg width="20" height="20" viewBox="0 0 20 20" fill="none" xmlns="http://www.w3.org/2000/svg">
<path d="M4.16667 17.4999C3.70833 17.4999 3.31611 17.3369 2.99 17.0108C2.66389 16.6846 2.50056 16.2921 2.5 15.8333V4.16659C2.5 3.70825 2.66333 3.31603 2.99 2.98992C3.31667 2.66381 3.70889 2.50047 4.16667 2.49992H7.66667C7.84722 1.99992 8.14944 1.59714 8.57333 1.29159C8.99722 0.98603 9.47278 0.833252 10 0.833252C10.5272 0.833252 11.0031 0.98603 11.4275 1.29159C11.8519 1.59714 12.1539 1.99992 12.3333 2.49992H15.8333C16.2917 2.49992 16.6842 2.66325 17.0108 2.98992C17.3375 3.31659 17.5006 3.70881 17.5 4.16659V15.8333C17.5 16.2916 17.3369 16.6841 17.0108 17.0108C16.6847 17.3374 16.2922 17.5005 15.8333 17.4999H4.16667ZM4.16667 15.8333H15.8333V4.16659H4.16667V15.8333ZM6.66667 14.1666H10.8333C11.0694 14.1666 11.2675 14.0866 11.4275 13.9266C11.5875 13.7666 11.6672 13.5688 11.6667 13.3333C11.6661 13.0977 11.5861 12.8999 11.4267 12.7399C11.2672 12.5799 11.0694 12.4999 10.8333 12.4999H6.66667C6.43056 12.4999 6.23278 12.5799 6.07333 12.7399C5.91389 12.8999 5.83389 13.0977 5.83333 13.3333C5.83278 13.5688 5.91278 13.7669 6.07333 13.9274C6.23389 14.088 6.43167 14.1677 6.66667 14.1666ZM6.66667 10.8333H13.3333C13.5694 10.8333 13.7675 10.7533 13.9275 10.5933C14.0875 10.4333 14.1672 10.2355 14.1667 9.99992C14.1661 9.76436 14.0861 9.56659 13.9267 9.40659C13.7672 9.24659 13.5694 9.16659 13.3333 9.16659H6.66667C6.43056 9.16659 6.23278 9.24659 6.07333 9.40659C5.91389 9.56659 5.83389 9.76436 5.83333 9.99992C5.83278 10.2355 5.91278 10.4335 6.07333 10.5941C6.23389 10.7546 6.43167 10.8344 6.66667 10.8333ZM6.66667 7.49992H13.3333C13.5694 7.49992 13.7675 7.41992 13.9275 7.25992C14.0875 7.09992 14.1672 6.90214 14.1667 6.66659C14.1661 6.43103 14.0861 6.23325 13.9267 6.07325C13.7672 5.91325 13.5694 5.83325 13.3333 5.83325H6.66667C6.43056 5.83325 6.23278 5.91325 6.07333 6.07325C5.91389 6.23325 5.83389 6.43103 5.83333 6.66659C5.83278 6.90214 5.91278 7.1002 6.07333 7.26075C6.23389 7.42131 6.43167 7.50103 6.66667 7.49992ZM10.4483 3.36492C10.5661 3.24659 10.625 3.09714 10.625 2.91659C10.625 2.73603 10.5658 2.58686 10.4475 2.46909C10.3292 2.35131 10.18 2.29214 10 2.29159C9.82 2.29103 9.67083 2.3502 9.5525 2.46909C9.43417 2.58797 9.375 2.73714 9.375 2.91659C9.375 3.09603 9.43417 3.24547 9.5525 3.36492C9.67083 3.48436 9.82 3.54325 10 3.54159C10.18 3.53992 10.3294 3.48159 10.4483 3.36492Z" fill="#F59E0B"/>
</svg>
