<svg width="16" height="16" viewBox="0 0 16 16" fill="none" xmlns="http://www.w3.org/2000/svg">
<path d="M9.45752 1.83545V4.23278C9.45752 4.55745 9.58685 4.86945 9.81752 5.09945C10.0488 5.3297 10.3619 5.45891 10.6882 5.45878H13.4382" stroke="#8A8A8A" stroke-width="1.5" stroke-linecap="round" stroke-linejoin="round"/>
<path d="M5.098 5.0981H7.27467M5.098 8.0001H10.902M5.098 10.9021H10.902M13.5 5.7121V11.4241C13.4868 11.7977 13.3997 12.165 13.2439 12.5048C13.088 12.8447 12.8665 13.1503 12.592 13.4041C12.3173 13.6591 11.995 13.8574 11.6436 13.9878C11.2922 14.1183 10.9186 14.1781 10.544 14.1641H5.484C5.10716 14.1813 4.73063 14.124 4.37598 13.9954C4.02134 13.8668 3.69557 13.6695 3.41733 13.4148C3.14018 13.1603 2.91636 12.8532 2.75888 12.5115C2.60141 12.1698 2.51341 11.8001 2.5 11.4241V4.57477C2.51324 4.20115 2.60028 3.83385 2.75612 3.49402C2.91196 3.1542 3.13351 2.84858 3.408 2.59477C3.68272 2.33978 4.00499 2.14142 4.35639 2.01102C4.70779 1.88061 5.08144 1.82072 5.456 1.83477H9.26533C9.84685 1.83271 10.4082 2.04788 10.8393 2.4381L12.8127 4.25277C13.0232 4.43415 13.1933 4.65784 13.3117 4.90926C13.4301 5.16069 13.4943 5.43424 13.5 5.7121Z" stroke="#8A8A8A" stroke-width="1.5" stroke-linecap="round" stroke-linejoin="round"/>
</svg>
