<svg width="22" height="22" viewBox="0 0 22 22" fill="none" xmlns="http://www.w3.org/2000/svg">
<path d="M3.66667 19.25C3.40694 19.25 3.18939 19.162 3.014 18.986C2.83861 18.81 2.75061 18.5924 2.75 18.3333V15.9042C2.75 15.6444 2.838 15.4269 3.014 15.2515C3.19 15.0761 3.40756 14.9881 3.66667 14.9875H18.3333C18.5931 14.9875 18.8109 15.0755 18.9869 15.2515C19.1629 15.4275 19.2506 15.6451 19.25 15.9042V18.3333C19.25 18.5931 19.162 18.8109 18.986 18.9869C18.81 19.1629 18.5924 19.2506 18.3333 19.25H3.66667ZM3.66667 13.1542C3.40694 13.1542 3.18939 13.0662 3.014 12.8902C2.83861 12.7142 2.75061 12.4966 2.75 12.2375V9.73958C2.75 9.47986 2.838 9.26231 3.014 9.08692C3.19 8.91153 3.40756 8.82353 3.66667 8.82292H18.3333C18.5931 8.82292 18.8109 8.91092 18.9869 9.08692C19.1629 9.26292 19.2506 9.48047 19.25 9.73958V12.2375C19.25 12.4972 19.162 12.7151 18.986 12.8911C18.81 13.0671 18.5924 13.1548 18.3333 13.1542H3.66667ZM3.66667 6.98958C3.40694 6.98958 3.18939 6.90158 3.014 6.72558C2.83861 6.54958 2.75061 6.33233 2.75 6.07383V3.66667C2.75 3.40694 2.838 3.18939 3.014 3.014C3.19 2.83861 3.40756 2.75061 3.66667 2.75H18.3333C18.5931 2.75 18.8109 2.838 18.9869 3.014C19.1629 3.19 19.2506 3.40756 19.25 3.66667V6.07292C19.25 6.33264 19.162 6.5505 18.986 6.7265C18.81 6.9025 18.5924 6.99019 18.3333 6.98958H3.66667Z" fill="black" fill-opacity="0.7"/>
</svg>
