<svg width="16" height="16" viewBox="0 0 16 16" fill="none" xmlns="http://www.w3.org/2000/svg">
<path d="M2.33337 5.33338C2.3335 4.70133 2.49701 4.08004 2.80805 3.5298C3.11908 2.97957 3.56706 2.51908 4.10852 2.19303C4.64999 1.86697 5.26654 1.68642 5.89836 1.66889C6.53017 1.65136 7.15579 1.79746 7.71449 2.093C8.2732 2.38853 8.74603 2.82348 9.08708 3.35562C9.42814 3.88776 9.62585 4.49903 9.66102 5.13011C9.69619 5.76119 9.56763 6.39064 9.28782 6.95739C9.008 7.52413 8.58644 8.00892 8.06403 8.36472C9.18903 8.77734 10.1648 9.51719 10.8658 10.4891C11.5668 11.4609 11.9609 12.6203 11.9974 13.818C11.9958 13.9472 11.9444 14.0707 11.8539 14.1629C11.7634 14.255 11.6408 14.3086 11.5117 14.3125C11.3827 14.3163 11.2571 14.2702 11.1612 14.1836C11.0654 14.0971 11.0067 13.9769 10.9974 13.848C10.9577 12.549 10.4137 11.3165 9.48081 10.4117C8.5479 9.50682 7.29934 9.00078 5.9997 9.00078C4.70006 9.00078 3.4515 9.50682 2.51858 10.4117C1.58567 11.3165 1.04173 12.549 1.00203 13.848C0.995358 13.9786 0.937818 14.1014 0.841739 14.19C0.745661 14.2786 0.618685 14.3261 0.488015 14.3223C0.357346 14.3185 0.233375 14.2636 0.142661 14.1695C0.0519469 14.0754 0.00170561 13.9494 0.00270003 13.8187C0.0390676 12.6209 0.433105 11.4613 1.13409 10.4893C1.83508 9.51733 2.81093 8.77738 3.93603 8.36472C3.44209 8.02831 3.03785 7.57626 2.75852 7.04793C2.4792 6.5196 2.33324 5.93101 2.33337 5.33338ZM6.00003 2.66672C5.29279 2.66672 4.61451 2.94767 4.11441 3.44776C3.61432 3.94786 3.33337 4.62614 3.33337 5.33338C3.33337 6.04063 3.61432 6.7189 4.11441 7.219C4.61451 7.7191 5.29279 8.00005 6.00003 8.00005C6.70728 8.00005 7.38555 7.7191 7.88565 7.219C8.38575 6.7189 8.6667 6.04063 8.6667 5.33338C8.6667 4.62614 8.38575 3.94786 7.88565 3.44776C7.38555 2.94767 6.70728 2.66672 6.00003 2.66672ZM11.5267 5.33338C11.4285 5.33338 11.332 5.34005 11.2374 5.35338C11.1713 5.36522 11.1035 5.36362 11.038 5.34868C10.9725 5.33374 10.9108 5.30577 10.8563 5.26644C10.8019 5.22711 10.756 5.17722 10.7213 5.11974C10.6865 5.06227 10.6638 4.99839 10.6543 4.93192C10.6448 4.86545 10.6488 4.79775 10.666 4.73285C10.6832 4.66796 10.7134 4.6072 10.7546 4.5542C10.7958 4.5012 10.8473 4.45705 10.906 4.42438C10.9646 4.39171 11.0293 4.37119 11.096 4.36405C11.7591 4.26819 12.4352 4.39551 13.0179 4.726C13.6007 5.05648 14.057 5.57136 14.3151 6.1896C14.5732 6.80784 14.6184 7.49434 14.4435 8.14107C14.2687 8.7878 13.8838 9.35804 13.3494 9.76205C14.135 10.1138 14.802 10.6854 15.2699 11.4078C15.7379 12.1302 15.9868 12.9726 15.9867 13.8334C15.9867 13.966 15.934 14.0932 15.8403 14.1869C15.7465 14.2807 15.6193 14.3334 15.4867 14.3334C15.3541 14.3334 15.2269 14.2807 15.1331 14.1869C15.0394 14.0932 14.9867 13.966 14.9867 13.8334C14.9869 13.0894 14.7474 12.3652 14.3035 11.7681C13.8597 11.171 13.2352 10.7329 12.5227 10.5187L12.1667 10.412V9.29472L12.44 9.15538C12.8452 8.95015 13.1694 8.61435 13.3602 8.20221C13.5511 7.79007 13.5975 7.32564 13.4919 6.88389C13.3864 6.44214 13.135 6.04886 12.7784 5.76753C12.4219 5.48621 11.9809 5.33326 11.5267 5.33338Z" fill="#8A8A8A"/>
</svg>
