<svg width="22" height="22" viewBox="0 0 22 22" fill="none" xmlns="http://www.w3.org/2000/svg">
<path d="M7.3335 19.25C6.82933 19.25 6.39788 19.0706 6.03916 18.7119C5.68044 18.3532 5.50077 17.9214 5.50016 17.4167V15.5833H3.66683C3.16266 15.5833 2.73122 15.404 2.3725 15.0452C2.01377 14.6865 1.83411 14.2548 1.8335 13.75V10.0833C1.8335 9.30417 2.10086 8.65119 2.63558 8.12442C3.1703 7.59764 3.81961 7.33394 4.5835 7.33333H17.4168C18.196 7.33333 18.8493 7.59703 19.3767 8.12442C19.9041 8.65181 20.1674 9.30478 20.1668 10.0833V13.75C20.1668 14.2542 19.9875 14.6859 19.6287 15.0452C19.27 15.4046 18.8383 15.5839 18.3335 15.5833H16.5002V17.4167C16.5002 17.9208 16.3208 18.3526 15.9621 18.7119C15.6034 19.0713 15.1716 19.2506 14.6668 19.25H7.3335ZM3.66683 13.75H5.50016C5.50016 13.2458 5.67983 12.8144 6.03916 12.4557C6.3985 12.0969 6.82994 11.9173 7.3335 11.9167H14.6668C15.171 11.9167 15.6027 12.0963 15.9621 12.4557C16.3214 12.815 16.5008 13.2464 16.5002 13.75H18.3335V10.0833C18.3335 9.82361 18.2455 9.60606 18.0695 9.43067C17.8935 9.25528 17.6759 9.16728 17.4168 9.16667H4.5835C4.32377 9.16667 4.10622 9.25467 3.93083 9.43067C3.75544 9.60667 3.66744 9.82422 3.66683 10.0833V13.75ZM14.6668 7.33333V4.58333H7.3335V7.33333H5.50016V4.58333C5.50016 4.07917 5.67983 3.64772 6.03916 3.289C6.3985 2.93028 6.82994 2.75061 7.3335 2.75H14.6668C15.171 2.75 15.6027 2.92967 15.9621 3.289C16.3214 3.64833 16.5008 4.07978 16.5002 4.58333V7.33333H14.6668ZM16.5002 11.4583C16.7599 11.4583 16.9777 11.3703 17.1537 11.1943C17.3297 11.0183 17.4174 10.8008 17.4168 10.5417C17.4162 10.2826 17.3282 10.065 17.1528 9.889C16.9774 9.713 16.7599 9.625 16.5002 9.625C16.2404 9.625 16.0229 9.713 15.8475 9.889C15.6721 10.065 15.5841 10.2826 15.5835 10.5417C15.5829 10.8008 15.6709 11.0186 15.8475 11.1953C16.0241 11.3719 16.2417 11.4596 16.5002 11.4583ZM14.6668 17.4167V13.75H7.3335V17.4167H14.6668Z" fill="black" fill-opacity="0.8"/>
</svg>
