<svg width="17" height="17" viewBox="0 0 17 17" fill="none" xmlns="http://www.w3.org/2000/svg">
<path d="M8.49996 1.41675C12.4121 1.41675 15.5833 4.58796 15.5833 8.50008C15.5833 12.4122 12.4121 15.5834 8.49996 15.5834C4.58783 15.5834 1.41663 12.4122 1.41663 8.50008C1.41663 4.58796 4.58783 1.41675 8.49996 1.41675ZM8.49996 2.83341C6.99707 2.83341 5.55573 3.43044 4.49302 4.49314C3.43031 5.55585 2.83329 6.99719 2.83329 8.50008C2.83329 10.003 3.43031 11.4443 4.49302 12.507C5.55573 13.5697 6.99707 14.1667 8.49996 14.1667C10.0029 14.1667 11.4442 13.5697 12.5069 12.507C13.5696 11.4443 14.1666 10.003 14.1666 8.50008C14.1666 6.99719 13.5696 5.55585 12.5069 4.49314C11.4442 3.43044 10.0029 2.83341 8.49996 2.83341ZM8.49996 11.3334C8.68782 11.3334 8.86799 11.408 9.00083 11.5409C9.13366 11.6737 9.20829 11.8539 9.20829 12.0417C9.20829 12.2296 9.13366 12.4098 9.00083 12.5426C8.86799 12.6755 8.68782 12.7501 8.49996 12.7501C8.3121 12.7501 8.13193 12.6755 7.99909 12.5426C7.86625 12.4098 7.79163 12.2296 7.79163 12.0417C7.79163 11.8539 7.86625 11.6737 7.99909 11.5409C8.13193 11.408 8.3121 11.3334 8.49996 11.3334ZM8.49996 4.60425C9.09657 4.60427 9.67456 4.81204 10.1346 5.19188C10.5947 5.57172 10.9082 6.09992 11.0211 6.68574C11.1341 7.27156 11.0396 7.87844 10.7537 8.40213C10.4679 8.92581 10.0086 9.33362 9.45479 9.5555C9.37276 9.58566 9.29882 9.63439 9.23875 9.69787C9.20758 9.73329 9.20263 9.77862 9.20333 9.82537L9.20829 9.91675C9.20809 10.0973 9.13896 10.2709 9.01503 10.4022C8.89109 10.5335 8.7217 10.6125 8.54147 10.6231C8.36124 10.6337 8.18377 10.575 8.04533 10.4591C7.90688 10.3433 7.81791 10.1789 7.79658 9.99962L7.79163 9.91675V9.73966C7.79163 8.92296 8.45038 8.43279 8.92779 8.24083C9.1221 8.16324 9.2916 8.03419 9.41809 7.86753C9.54458 7.70087 9.62329 7.50291 9.64576 7.29489C9.66822 7.08688 9.63361 6.87667 9.54562 6.68685C9.45763 6.49702 9.3196 6.33475 9.14634 6.21746C8.97308 6.10017 8.77115 6.03229 8.56223 6.02111C8.3533 6.00992 8.14527 6.05586 7.96049 6.15399C7.7757 6.25212 7.62114 6.39873 7.51339 6.57807C7.40564 6.75742 7.34878 6.96273 7.34892 7.17196C7.34892 7.35982 7.27429 7.53999 7.14145 7.67282C7.00861 7.80566 6.82845 7.88029 6.64058 7.88029C6.45272 7.88029 6.27256 7.80566 6.13972 7.67282C6.00688 7.53999 5.93225 7.35982 5.93225 7.17196C5.93225 6.49096 6.20278 5.83785 6.68432 5.35631C7.16585 4.87477 7.81896 4.60425 8.49996 4.60425Z" fill="#8A8A8A"/>
</svg>
