<svg width="16" height="16" viewBox="0 0 16 16" fill="none" xmlns="http://www.w3.org/2000/svg">
<path d="M13.9494 3.74472C13.9158 3.66392 13.8667 3.59053 13.8047 3.52872L11.8047 1.52872C11.7432 1.46505 11.6697 1.41426 11.5883 1.37932C11.507 1.34438 11.4195 1.32599 11.331 1.32522C11.2425 1.32445 11.1547 1.34132 11.0728 1.37484C10.9908 1.40836 10.9164 1.45786 10.8538 1.52046C10.7912 1.58305 10.7417 1.65749 10.7082 1.73942C10.6747 1.82135 10.6578 1.90914 10.6586 1.99765C10.6593 2.08617 10.6777 2.17365 10.7127 2.25499C10.7476 2.33633 10.7984 2.40989 10.8621 2.47139L11.7241 3.33339H5.33341C4.44936 3.33339 3.60151 3.68458 2.97639 4.3097C2.35127 4.93482 2.00008 5.78267 2.00008 6.66672V8.00005C2.00008 8.17686 2.07032 8.34643 2.19534 8.47146C2.32036 8.59648 2.48993 8.66672 2.66674 8.66672C2.84355 8.66672 3.01312 8.59648 3.13815 8.47146C3.26317 8.34643 3.33341 8.17686 3.33341 8.00005V6.66672C3.33341 6.13629 3.54412 5.62758 3.9192 5.25251C4.29427 4.87743 4.80298 4.66672 5.33341 4.66672H11.7241L10.8621 5.52872C10.7406 5.65446 10.6734 5.82286 10.675 5.99765C10.6765 6.17245 10.7466 6.33966 10.8702 6.46327C10.9938 6.58687 11.161 6.65698 11.3358 6.6585C11.5106 6.66002 11.679 6.59283 11.8047 6.47139L13.8047 4.47139C13.9298 4.34639 14 4.17685 14.0001 4.00005M13.9494 3.74472C13.9827 3.82505 13.9999 3.91111 14.0001 3.99805L13.9494 3.74472ZM2.05074 11.7447C2.00027 11.8666 1.98708 12.0007 2.01283 12.13C2.03858 12.2594 2.10212 12.3782 2.19541 12.4714L4.19541 14.4714C4.32115 14.5928 4.48955 14.66 4.66434 14.6585C4.83914 14.657 5.00635 14.5869 5.12996 14.4633C5.25356 14.3397 5.32367 14.1725 5.32519 13.9977C5.32671 13.8229 5.25952 13.6545 5.13808 13.5287L4.27608 12.6667H10.6667C11.5508 12.6667 12.3986 12.3155 13.0238 11.6904C13.6489 11.0653 14.0001 10.2174 14.0001 9.33339V8.00005C14.0001 7.82324 13.9298 7.65367 13.8048 7.52865C13.6798 7.40363 13.5102 7.33339 13.3334 7.33339C13.1566 7.33339 12.987 7.40363 12.862 7.52865C12.737 7.65367 12.6667 7.82324 12.6667 8.00005V9.33339C12.6667 9.86382 12.456 10.3725 12.081 10.7476C11.7059 11.1227 11.1972 11.3334 10.6667 11.3334H4.27608L5.13808 10.4714C5.20175 10.4099 5.25254 10.3363 5.28748 10.255C5.32242 10.1737 5.34081 10.0862 5.34158 9.99765C5.34235 9.90913 5.32548 9.82135 5.29196 9.73942C5.25844 9.65749 5.20894 9.58305 5.14634 9.52046C5.08375 9.45786 5.00931 9.40836 4.92738 9.37484C4.84545 9.34132 4.75766 9.32445 4.66914 9.32522C4.58062 9.32599 4.49314 9.34438 4.41181 9.37932C4.33047 9.41426 4.25691 9.46505 4.19541 9.52872L2.19541 11.5287M2.05074 11.7447C2.08408 11.6645 2.13277 11.5916 2.19408 11.5301L2.05074 11.7447Z" fill="#8A8A8A"/>
</svg>
