<svg width="20" height="20" viewBox="0 0 20 20" fill="none" xmlns="http://www.w3.org/2000/svg">
<path d="M12.2951 8.33333C13.1001 8.33333 13.7534 8.98667 13.7534 9.79167V13.7492C13.7534 14.7439 13.3582 15.698 12.6548 16.4014C11.9514 17.1048 10.9974 17.5 10.0026 17.5C9.0078 17.5 8.05376 17.1048 7.35034 16.4014C6.64692 15.698 6.25175 14.7439 6.25175 13.7492V9.79167C6.25175 8.98667 6.90425 8.33333 7.71008 8.33333H12.2951ZM12.2951 9.58333H7.71008C7.65483 9.58333 7.60184 9.60528 7.56277 9.64435C7.5237 9.68342 7.50175 9.73641 7.50175 9.79167V13.7492C7.50175 14.4124 7.76523 15.0485 8.23423 15.5175C8.70322 15.9865 9.33932 16.25 10.0026 16.25C10.6658 16.25 11.3019 15.9865 11.7709 15.5175C12.2399 15.0485 12.5034 14.4124 12.5034 13.7492V9.79167C12.5034 9.73641 12.4815 9.68342 12.4424 9.64435C12.4033 9.60528 12.3503 9.58333 12.2951 9.58333ZM3.12508 8.33333H5.94258C5.64867 8.68846 5.46913 9.12423 5.42758 9.58333H3.12508C3.06983 9.58333 3.01684 9.60528 2.97777 9.64435C2.9387 9.68342 2.91675 9.73641 2.91675 9.79167V12.4992C2.91654 12.8141 2.98774 13.125 3.12499 13.4085C3.26225 13.692 3.462 13.9406 3.70921 14.1358C3.95642 14.3309 4.24466 14.4675 4.55225 14.5352C4.85984 14.6029 5.17878 14.6 5.48508 14.5267C5.55591 14.9467 5.68508 15.3475 5.86258 15.72C5.58703 15.795 5.29953 15.8328 5.00008 15.8333C4.56227 15.8333 4.12875 15.7471 3.72428 15.5795C3.3198 15.412 2.9523 15.1663 2.64276 14.8567C2.33322 14.5471 2.08771 14.1795 1.92024 13.775C1.75278 13.3705 1.66664 12.937 1.66675 12.4992V9.79167C1.66675 8.98667 2.32008 8.33333 3.12508 8.33333ZM14.0626 8.33333H16.8751C17.6801 8.33333 18.3334 8.98667 18.3334 9.79167V12.5C18.3335 13.011 18.2162 13.5151 17.9904 13.9735C17.7646 14.4319 17.4365 14.8323 17.0314 15.1436C16.6263 15.455 16.155 15.6691 15.6539 15.7693C15.1529 15.8695 14.6355 15.8532 14.1417 15.7217C14.3201 15.3483 14.4492 14.9475 14.5209 14.5275C14.6748 14.5642 14.8345 14.5828 15.0001 14.5833C15.5526 14.5833 16.0825 14.3638 16.4732 13.9731C16.8639 13.5824 17.0834 13.0525 17.0834 12.5V9.79167C17.0834 9.73641 17.0615 9.68342 17.0224 9.64435C16.9833 9.60528 16.9303 9.58333 16.8751 9.58333H14.5776C14.536 9.12423 14.3565 8.68846 14.0626 8.33333ZM10.0001 2.5C10.6631 2.5 11.299 2.76339 11.7678 3.23223C12.2367 3.70107 12.5001 4.33696 12.5001 5C12.5001 5.66304 12.2367 6.29893 11.7678 6.76777C11.299 7.23661 10.6631 7.5 10.0001 7.5C9.33704 7.5 8.70115 7.23661 8.23231 6.76777C7.76347 6.29893 7.50008 5.66304 7.50008 5C7.50008 4.33696 7.76347 3.70107 8.23231 3.23223C8.70115 2.76339 9.33704 2.5 10.0001 2.5ZM15.4167 3.33333C15.9693 3.33333 16.4992 3.55283 16.8899 3.94353C17.2806 4.33423 17.5001 4.86413 17.5001 5.41667C17.5001 5.9692 17.2806 6.4991 16.8899 6.88981C16.4992 7.28051 15.9693 7.5 15.4167 7.5C14.8642 7.5 14.3343 7.28051 13.9436 6.88981C13.5529 6.4991 13.3334 5.9692 13.3334 5.41667C13.3334 4.86413 13.5529 4.33423 13.9436 3.94353C14.3343 3.55283 14.8642 3.33333 15.4167 3.33333ZM4.58341 3.33333C5.13595 3.33333 5.66585 3.55283 6.05655 3.94353C6.44725 4.33423 6.66675 4.86413 6.66675 5.41667C6.66675 5.9692 6.44725 6.4991 6.05655 6.88981C5.66585 7.28051 5.13595 7.5 4.58341 7.5C4.03088 7.5 3.50098 7.28051 3.11028 6.88981C2.71957 6.4991 2.50008 5.9692 2.50008 5.41667C2.50008 4.86413 2.71957 4.33423 3.11028 3.94353C3.50098 3.55283 4.03088 3.33333 4.58341 3.33333ZM10.0001 3.75C9.66856 3.75 9.35062 3.8817 9.1162 4.11612C8.88178 4.35054 8.75008 4.66848 8.75008 5C8.75008 5.33152 8.88178 5.64946 9.1162 5.88388C9.35062 6.1183 9.66856 6.25 10.0001 6.25C10.3316 6.25 10.6495 6.1183 10.884 5.88388C11.1184 5.64946 11.2501 5.33152 11.2501 5C11.2501 4.66848 11.1184 4.35054 10.884 4.11612C10.6495 3.8817 10.3316 3.75 10.0001 3.75ZM15.4167 4.58333C15.1957 4.58333 14.9838 4.67113 14.8275 4.82741C14.6712 4.98369 14.5834 5.19565 14.5834 5.41667C14.5834 5.63768 14.6712 5.84964 14.8275 6.00592C14.9838 6.1622 15.1957 6.25 15.4167 6.25C15.6378 6.25 15.8497 6.1622 16.006 6.00592C16.1623 5.84964 16.2501 5.63768 16.2501 5.41667C16.2501 5.19565 16.1623 4.98369 16.006 4.82741C15.8497 4.67113 15.6378 4.58333 15.4167 4.58333ZM4.58341 4.58333C4.3624 4.58333 4.15044 4.67113 3.99416 4.82741C3.83788 4.98369 3.75008 5.19565 3.75008 5.41667C3.75008 5.63768 3.83788 5.84964 3.99416 6.00592C4.15044 6.1622 4.3624 6.25 4.58341 6.25C4.80443 6.25 5.01639 6.1622 5.17267 6.00592C5.32895 5.84964 5.41675 5.63768 5.41675 5.41667C5.41675 5.19565 5.32895 4.98369 5.17267 4.82741C5.01639 4.67113 4.80443 4.58333 4.58341 4.58333Z" fill="#10B981"/>
</svg>
