<svg width="22" height="22" viewBox="0 0 22 22" fill="none" xmlns="http://www.w3.org/2000/svg">
<path fill-rule="evenodd" clip-rule="evenodd" d="M3.896 4.58333C3.896 3.91477 4.16158 3.27358 4.63433 2.80084C5.10708 2.32809 5.74826 2.0625 6.41683 2.0625H13.7382C13.993 2.0625 14.2442 2.1232 14.4709 2.23956C14.6975 2.35593 14.8932 2.52462 15.0417 2.73167L17.8037 6.57892C17.9989 6.85208 18.1043 7.17933 18.1043 7.51392V17.4167C18.1043 18.0852 17.8387 18.7264 17.366 19.1992C16.8932 19.6719 16.2521 19.9375 15.5835 19.9375H6.41683C5.74826 19.9375 5.10708 19.6719 4.63433 19.1992C4.16158 18.7264 3.896 18.0852 3.896 17.4167V4.58333ZM6.41683 3.4375C5.78433 3.4375 5.271 3.95083 5.271 4.58333V17.4167C5.271 18.0492 5.78433 18.5625 6.41683 18.5625H15.5835C16.216 18.5625 16.7293 18.0492 16.7293 17.4167V8.15558H13.7502C13.5678 8.15558 13.393 8.08315 13.264 7.95422C13.1351 7.82529 13.0627 7.65042 13.0627 7.46808V3.4375H6.41683Z" fill="#475569"/>
<path d="M13.8288 12.1175C13.7724 12.1881 13.7026 12.2469 13.6234 12.2905C13.5443 12.3341 13.4573 12.3617 13.3675 12.3716C13.2777 12.3816 13.1867 12.3737 13.1 12.3485C13.0132 12.3233 12.9322 12.2813 12.8617 12.2247L11.6884 11.2842V14.4376C11.6884 14.6199 11.6159 14.7948 11.487 14.9237C11.3581 15.0526 11.1832 15.1251 11.0009 15.1251C10.8185 15.1251 10.6437 15.0526 10.5147 14.9237C10.3858 14.7948 10.3134 14.6199 10.3134 14.4376V11.2842L9.13819 12.2247C8.99573 12.3386 8.81385 12.3913 8.63257 12.3711C8.4513 12.3509 8.28547 12.2595 8.17157 12.117C8.05767 11.9746 8.00503 11.7927 8.02523 11.6114C8.04543 11.4301 8.13681 11.2643 8.27928 11.1504L10.5682 9.31892C10.689 9.22154 10.8393 9.16791 10.9944 9.16675H11.0018C11.1668 9.16675 11.3171 9.22541 11.4354 9.32258L13.7215 11.1504C13.7921 11.2068 13.8509 11.2766 13.8945 11.3558C13.9381 11.4349 13.9657 11.5219 13.9757 11.6117C13.9856 11.7015 13.9778 11.7924 13.9526 11.8792C13.9274 11.966 13.8853 12.047 13.8288 12.1175Z" fill="#475569"/>
</svg>
