<svg width="20" height="20" viewBox="0 0 20 20" fill="none" xmlns="http://www.w3.org/2000/svg">
<path d="M10.0001 3.33337C12.3226 3.33337 14.3859 4.38087 15.8551 5.67754C16.5926 6.32837 17.2001 7.05921 17.6284 7.78671C18.0492 8.50087 18.3334 9.27504 18.3334 10C18.3334 10.725 18.0501 11.4992 17.6284 12.2134C17.2001 12.9409 16.5926 13.6717 15.8551 14.3225C14.3859 15.6192 12.3217 16.6667 10.0001 16.6667C7.67758 16.6667 5.61425 15.6192 4.14508 14.3225C3.40758 13.6717 2.80008 12.9409 2.37175 12.2134C1.95008 11.4992 1.66675 10.725 1.66675 10C1.66675 9.27504 1.95008 8.50087 2.37175 7.78671C2.80008 7.05921 3.40758 6.32837 4.14508 5.67754C5.61425 4.38087 7.67841 3.33337 10.0001 3.33337ZM10.0001 5.00004C8.18008 5.00004 6.49341 5.82754 5.24841 6.92671C4.62841 7.47337 4.13841 8.07087 3.80758 8.63254C3.46925 9.20754 3.33341 9.68337 3.33341 10C3.33341 10.3167 3.46925 10.7925 3.80758 11.3675C4.13841 11.9292 4.62841 12.5259 5.24841 13.0734C6.49341 14.1725 8.18008 15 10.0001 15C11.8201 15 13.5067 14.1725 14.7517 13.0734C15.3717 12.5259 15.8617 11.9292 16.1926 11.3675C16.5309 10.7925 16.6667 10.3167 16.6667 10C16.6667 9.68337 16.5309 9.20754 16.1926 8.63254C15.8617 8.07087 15.3717 7.47421 14.7517 6.92671C13.5067 5.82754 11.8201 5.00004 10.0001 5.00004ZM10.0001 7.50004C10.0734 7.50004 10.1459 7.5031 10.2176 7.50921C10.0367 7.82659 9.96502 8.19462 10.0137 8.55669C10.0624 8.91876 10.2287 9.25481 10.487 9.51313C10.7453 9.77146 11.0814 9.93775 11.4434 9.98643C11.8055 10.0351 12.1735 9.96347 12.4909 9.78254C12.5347 10.2843 12.426 10.7877 12.1788 11.2266C11.9317 11.6655 11.5577 12.0196 11.1059 12.2423C10.6541 12.4651 10.1456 12.5461 9.64693 12.4749C9.14828 12.4037 8.68276 12.1835 8.31139 11.8432C7.94002 11.5029 7.6801 11.0583 7.56571 10.5678C7.45132 10.0772 7.48778 9.56355 7.67032 9.09407C7.85287 8.62459 8.17297 8.22121 8.58869 7.93677C9.00441 7.65233 9.49636 7.5001 10.0001 7.50004Z" fill="#4A4A4A"/>
</svg>
