<svg width="20" height="20" viewBox="0 0 20 20" fill="none" xmlns="http://www.w3.org/2000/svg">
<path d="M7.27496 2.84375C8.46996 0.71875 11.53 0.71875 12.725 2.84375L18.345 12.8488C19.515 14.9325 18.0087 17.505 15.62 17.505H4.37871C1.98996 17.505 0.484961 14.9325 1.65496 12.8488L7.27496 2.84375ZM11.635 3.45625C11.472 3.1659 11.2346 2.92419 10.9472 2.75597C10.6599 2.58774 10.3329 2.49907 9.99996 2.49907C9.66699 2.49907 9.34003 2.58774 9.05267 2.75597C8.76532 2.92419 8.52795 3.1659 8.36496 3.45625L2.74371 13.4625C2.58362 13.7478 2.50097 14.0701 2.50397 14.3972C2.50698 14.7244 2.59553 15.045 2.76083 15.3274C2.92614 15.6097 3.16244 15.8439 3.44626 16.0066C3.73008 16.1693 4.05155 16.255 4.37871 16.255H15.62C15.9471 16.255 16.2686 16.1693 16.5524 16.0066C16.8362 15.8439 17.0725 15.6097 17.2378 15.3274C17.4031 15.045 17.4917 14.7244 17.4947 14.3972C17.4977 14.0701 17.4151 13.7478 17.255 13.4625L11.635 3.45625ZM9.99996 11.875C10.2486 11.875 10.4871 11.9738 10.6629 12.1496C10.8387 12.3254 10.9375 12.5639 10.9375 12.8125C10.9375 13.0611 10.8387 13.2996 10.6629 13.4754C10.4871 13.6512 10.2486 13.75 9.99996 13.75C9.75132 13.75 9.51286 13.6512 9.33705 13.4754C9.16123 13.2996 9.06246 13.0611 9.06246 12.8125C9.06246 12.5639 9.16123 12.3254 9.33705 12.1496C9.51286 11.9738 9.75132 11.875 9.99996 11.875ZM9.99996 6.25C10.1657 6.25 10.3247 6.31585 10.4419 6.43306C10.5591 6.55027 10.625 6.70924 10.625 6.875V10C10.625 10.1658 10.5591 10.3247 10.4419 10.4419C10.3247 10.5592 10.1657 10.625 9.99996 10.625C9.8342 10.625 9.67523 10.5592 9.55802 10.4419C9.44081 10.3247 9.37496 10.1658 9.37496 10V6.875C9.37496 6.70924 9.44081 6.55027 9.55802 6.43306C9.67523 6.31585 9.8342 6.25 9.99996 6.25Z" fill="black"/>
</svg>
