<svg width="40" height="40" viewBox="0 0 40 40" fill="none" xmlns="http://www.w3.org/2000/svg">
<rect width="40" height="40" rx="20" fill="#EC4899" fill-opacity="0.7"/>
<path d="M14.2982 10.5C14.9348 10.5 15.5452 10.7502 15.9953 11.1956C16.4454 11.641 16.6982 12.2451 16.6982 12.875C16.6982 13.5049 16.4454 14.109 15.9953 14.5544C15.5452 14.9998 14.9348 15.25 14.2982 15.25C13.6617 15.25 13.0513 14.9998 12.6012 14.5544C12.1511 14.109 11.8982 13.5049 11.8982 12.875C11.8982 12.2451 12.1511 11.641 12.6012 11.1956C13.0513 10.7502 13.6617 10.5 14.2982 10.5ZM11.5982 28.3125V25.3438H10.9307C10.522 25.3438 10.2332 24.9467 10.3607 24.5607L11.527 21.0947L10.4545 22.4975C10.0532 23.0207 9.29948 23.1209 8.77448 22.7275C8.24948 22.3342 8.14448 21.5883 8.54198 21.065L10.7507 18.1816C11.5907 17.0832 12.907 16.4375 14.2982 16.4375C15.6895 16.4375 17.0057 17.0832 17.8457 18.1816L20.0545 21.065C20.4557 21.5883 20.3507 22.3342 19.822 22.7275C19.2932 23.1209 18.5395 23.0207 18.142 22.4975L17.0695 21.0947L18.2357 24.5607C18.367 24.9467 18.0745 25.3438 17.6657 25.3438H16.9982V28.3125C16.9982 28.9693 16.462 29.5 15.7982 29.5C15.1345 29.5 14.5982 28.9693 14.5982 28.3125V25.3438H13.9982V28.3125C13.9982 28.9693 13.462 29.5 12.7982 29.5C12.1345 29.5 11.5982 28.9693 11.5982 28.3125ZM26.2982 10.5C26.9348 10.5 27.5452 10.7502 27.9953 11.1956C28.4454 11.641 28.6982 12.2451 28.6982 12.875C28.6982 13.5049 28.4454 14.109 27.9953 14.5544C27.5452 14.9998 26.9348 15.25 26.2982 15.25C25.6617 15.25 25.0513 14.9998 24.6012 14.5544C24.1511 14.109 23.8982 13.5049 23.8982 12.875C23.8982 12.2451 24.1511 11.641 24.6012 11.1956C25.0513 10.7502 25.6617 10.5 26.2982 10.5ZM25.9982 24.75V28.3125C25.9982 28.9693 25.462 29.5 24.7982 29.5C24.1345 29.5 23.5982 28.9693 23.5982 28.3125V21.6514L23.1145 22.4121C22.762 22.9688 22.0195 23.132 21.4607 22.7832C20.902 22.4344 20.7332 21.6996 21.0857 21.1467L23.0245 18.1C23.6845 17.0646 24.8357 16.4338 26.0695 16.4338H26.5307C27.7682 16.4338 28.9195 17.0609 29.5757 18.1L31.5145 21.1504C31.867 21.707 31.6982 22.4381 31.1395 22.7869C30.5807 23.1357 29.8382 22.9688 29.4857 22.4158L28.9982 21.6514V28.3125C28.9982 28.9693 28.462 29.5 27.7982 29.5C27.1345 29.5 26.5982 28.9693 26.5982 28.3125V24.75H25.9982Z" fill="white"/>
</svg>
